<?xml version="1.0" encoding="utf-8"?>
<!-- Generator: Adobe Illustrator 21.1.0, SVG Export Plug-In . SVG Version: 6.00 Build 0)  -->
<svg version="1.1" id="Layer_1" xmlns="http://www.w3.org/2000/svg" xmlns:xlink="http://www.w3.org/1999/xlink" x="0px" y="0px"
	 width="241px" height="89px" viewBox="0 0 241 89" style="enable-background:new 0 0 241 89;" xml:space="preserve">
<style type="text/css">
	.st0{fill:url(#XMLID_50_);}
	.st1{fill:url(#XMLID_51_);}
	.st2{fill:url(#XMLID_52_);}
	.st3{fill:url(#XMLID_53_);}
	.st4{fill:url(#XMLID_54_);}
	.st5{fill:url(#XMLID_55_);}
	.st6{fill:url(#XMLID_56_);}
	.st7{fill:url(#XMLID_57_);}
	.st8{fill:url(#XMLID_58_);}
	.st9{fill:url(#XMLID_59_);}
	.st10{fill:url(#XMLID_60_);}
	.st11{fill:url(#XMLID_61_);}
	.st12{fill:url(#XMLID_62_);}
</style>
<g id="XMLID_1_">
	<path id="XMLID_2_" d="M103.9,30.7c-4.5,0-8.3-3.1-8.3-8.3c0-5.1,3.8-8.3,8.3-8.3c4.5,0,8.3,3.1,8.3,8.3
		C112.1,27.6,108.4,30.7,103.9,30.7z M103.9,16.2c-3.3,0-6,2.3-6,6.3c0,3.9,2.7,6.3,6,6.3c3.3,0,6-2.4,6-6.3
		C109.8,18.5,107.1,16.2,103.9,16.2z"/>
	<path id="XMLID_5_" d="M127.9,30.5h-2.2l-9.2-12.8c0,0,0,2.2,0,4.2v8.5h-2.2v-16h2.4l9.1,12.6c0,0,0-2,0-4.1v-8.5h2.2V30.5z"/>
	<path id="XMLID_7_" d="M141.1,16.3h-4.5v14.1h-2.3V16.3h-4.5v-1.9h11.3V16.3z"/>
	<path id="XMLID_9_" d="M154.3,30.5h-2.5l-1.6-4.2h-6.9l-1.6,4.2h-2.4l6.5-16.1h2L154.3,30.5z M149.5,24.4l-2.8-7.2l-2.8,7.2H149.5z
		"/>
	<path id="XMLID_12_" d="M166.7,30.5H164l-4.2-6.9h-1.7v6.9h-2.3v-16h4.5c1.6,0,2.9,0.4,3.9,1.1c1,0.8,1.6,1.9,1.6,3.4
		c0,2.8-2,4.1-3.6,4.4L166.7,30.5z M162.5,16.9c-0.7-0.5-1.6-0.6-2.7-0.6h-1.6v5.4h1.6c1.1,0,2,0,2.7-0.6c0.7-0.5,1-1.2,1-2.2
		C163.5,18,163.2,17.4,162.5,16.9z"/>
	<path id="XMLID_15_" d="M170.7,30.5h-2.3v-16h2.3V30.5z"/>
	<path id="XMLID_17_" d="M181.1,30.7c-4.5,0-8.3-3.1-8.3-8.3c0-5.1,3.8-8.3,8.3-8.3c4.5,0,8.3,3.1,8.3,8.3
		C189.3,27.6,185.6,30.7,181.1,30.7z M181.1,16.2c-3.3,0-6,2.3-6,6.3c0,3.9,2.7,6.3,6,6.3c3.3,0,6-2.4,6-6.3
		C187,18.5,184.4,16.2,181.1,16.2z"/>
	<path id="XMLID_20_" d="M106.1,52.8h-9.6v-16h9.4v1.9h-7.1v4.8h6.7v1.9h-6.7v5.6h7.3V52.8z"/>
	<path id="XMLID_22_" d="M122,52.8h-2.2L110.5,40c0,0,0,2.2,0,4.2v8.5h-2.2v-16h2.4l9.1,12.6c0,0,0-2,0-4.1v-8.5h2.2V52.8z"/>
	<path id="XMLID_24_" d="M134.6,52.8h-9.6v-16h9.4v1.9h-7.1v4.8h6.7v1.9h-6.7v5.6h7.3V52.8z"/>
	<path id="XMLID_26_" d="M148.3,52.8h-2.7l-4.2-6.9h-1.7v6.9h-2.3v-16h4.5c1.6,0,2.9,0.4,3.9,1.1c1,0.8,1.6,1.9,1.6,3.4
		c0,2.8-2,4.1-3.6,4.4L148.3,52.8z M144,39.2c-0.7-0.5-1.6-0.6-2.7-0.6h-1.6V44h1.6c1.1,0,2,0,2.7-0.6c0.7-0.5,1-1.2,1-2.2
		C145,40.4,144.7,39.7,144,39.2z"/>
	<path id="XMLID_29_" d="M163.5,50.5c-0.3,0.3-2.3,2.6-6.8,2.6c-4.6,0-8.2-3.3-8.2-8.3c0-5,3.6-8.2,8.2-8.2c4.1,0,5.9,2.2,6.5,2.8
		l-1.5,1.4c-1-1.1-2.4-2.3-4.9-2.3c-3.3,0-5.8,2.4-5.8,6.3c0,3.9,2.6,6.3,6,6.3c3.3,0,4.5-1.5,4.5-1.5v-3.6H157v-1.8h6.5V50.5z"/>
	<path id="XMLID_31_" d="M178,36.8l-5.6,9.3v6.7h-2.3v-6.7l-5.6-9.3h2.5l4.2,7.4l4.2-7.4H178z"/>
	<path id="XMLID_33_" d="M105.7,74.1c-1,0.8-2.3,1-4,1h-5.2v-16h4.3c1.5,0,2.8,0.1,3.8,0.8c1,0.6,1.7,1.6,1.7,3.3
		c0,1.7-1.1,3.1-2.4,3.5v0c2.2,0.4,3.6,1.8,3.6,3.9C107.5,72.2,106.7,73.3,105.7,74.1z M103,61.3c-0.6-0.3-1.2-0.4-2.2-0.4h-2.1V66
		h1.9c1.1,0,1.9-0.1,2.4-0.5c0.5-0.4,1.1-1,1.1-2.1C104.1,62.2,103.6,61.6,103,61.3z M104,68.3c-0.8-0.5-1.8-0.6-2.8-0.6h-2.4v5.6
		h2.4c1,0,2,0,2.8-0.6c0.8-0.5,1.2-1.2,1.2-2.3C105.1,69.4,104.8,68.8,104,68.3z"/>
	<path id="XMLID_37_" d="M117,75.4c-4.5,0-8.3-3.1-8.3-8.3c0-5.1,3.8-8.3,8.3-8.3s8.3,3.1,8.3,8.3C125.3,72.3,121.5,75.4,117,75.4z
		 M117,60.8c-3.3,0-6,2.3-6,6.3c0,3.9,2.7,6.3,6,6.3c3.3,0,6-2.4,6-6.3C123,63.2,120.3,60.8,117,60.8z"/>
	<path id="XMLID_40_" d="M140.3,75.1h-2.5l-1.6-4.2h-6.9l-1.6,4.2h-2.4l6.5-16.1h2L140.3,75.1z M135.5,69l-2.8-7.2l-2.8,7.2H135.5z"
		/>
	<path id="XMLID_43_" d="M152.9,75.1h-2.7l-4.2-6.9h-1.7v6.9h-2.3v-16h4.5c1.6,0,2.9,0.4,3.9,1.1c1,0.8,1.6,1.9,1.6,3.4
		c0,2.8-2,4.1-3.6,4.4L152.9,75.1z M148.7,61.5c-0.7-0.5-1.6-0.6-2.7-0.6h-1.6v5.4h1.6c1.1,0,2,0,2.7-0.6c0.7-0.5,1-1.2,1-2.2
		C149.7,62.7,149.4,62,148.7,61.5z"/>
	<path id="XMLID_46_" d="M165.4,73c-1.2,1.1-3.2,2.1-6,2.1h-4.8v-16h4.8c2.8,0,4.8,1,6,2.1c1.2,1.1,2.5,2.9,2.5,5.9
		C167.9,70.1,166.6,72,165.4,73z M163.7,62.5c-0.9-0.8-2.3-1.5-4.3-1.5h-2.6v12.1h2.6c2,0,3.4-0.7,4.3-1.5c0.9-0.8,1.9-2.3,1.9-4.6
		S164.6,63.3,163.7,62.5z"/>
</g>
<g id="XMLID_144_">
	<linearGradient id="XMLID_50_" gradientUnits="userSpaceOnUse" x1="1.5254" y1="50.5462" x2="83.9233" y2="57.7551">
		<stop  offset="0" style="stop-color:#FFFFFF;stop-opacity:0"/>
		<stop  offset="1" style="stop-color:#00AAE7"/>
	</linearGradient>
	<path id="XMLID_252_" class="st0" d="M39.4,29.5c20.5,0,37.1,16.6,37.1,37.1c0,7.7-2.4,14.8-6.4,20.8c2.1,0.3,4.2,0.5,6.4,0.5
		c0.3,0,0.6,0,0.9,0C81,81.6,83,74.3,83,66.6c0-24-19.5-43.5-43.5-43.5c-15.9,0-29.8,8.5-37.4,21.3c1.2,2,2.6,4,4.2,5.8
		C12.3,37.9,24.9,29.5,39.4,29.5z"/>
	<linearGradient id="XMLID_51_" gradientUnits="userSpaceOnUse" x1="2.0672" y1="33.2119" x2="82.9795" y2="33.2119">
		<stop  offset="0" style="stop-color:#A6CE39"/>
		<stop  offset="1" style="stop-color:#F26924"/>
	</linearGradient>
	<path id="XMLID_251_" class="st1" d="M83,22.1c0-7.7-2-14.9-5.5-21.2c-0.3,0-0.6,0-0.9,0c-2.2,0-4.3,0.2-6.4,0.5
		c4,5.9,6.4,13.1,6.4,20.8c0,20.5-16.6,37.1-37.1,37.1c-14.5,0-27.1-8.4-33.2-20.6c-1.5,1.8-2.9,3.7-4.2,5.8
		c7.6,12.7,21.5,21.3,37.4,21.3C63.5,65.6,83,46.1,83,22.1z"/>
	<linearGradient id="XMLID_52_" gradientUnits="userSpaceOnUse" x1="2.0672" y1="33.2119" x2="82.9795" y2="33.2119">
		<stop  offset="0" style="stop-color:#A6CE39"/>
		<stop  offset="1" style="stop-color:#FFFFFF;stop-opacity:0"/>
	</linearGradient>
	<path id="XMLID_250_" class="st2" d="M83,22.1c0-7.7-2-14.9-5.5-21.2c-0.3,0-0.6,0-0.9,0c-2.2,0-4.3,0.2-6.4,0.5
		c4,5.9,6.4,13.1,6.4,20.8c0,20.5-16.6,37.1-37.1,37.1c-14.5,0-27.1-8.4-33.2-20.6c-1.5,1.8-2.9,3.7-4.2,5.8
		c7.6,12.7,21.5,21.3,37.4,21.3C63.5,65.6,83,46.1,83,22.1z"/>
	<linearGradient id="XMLID_53_" gradientUnits="userSpaceOnUse" x1="2.0672" y1="33.2119" x2="82.7338" y2="33.2119">
		<stop  offset="0" style="stop-color:#FFFFFF;stop-opacity:0"/>
		<stop  offset="1" style="stop-color:#F26924"/>
	</linearGradient>
	<path id="XMLID_249_" class="st3" d="M82.7,22.1c0-7.7-1.8-15-5.3-21.3c-0.3,0-0.6,0-0.9,0c-2.2,0-4.3,0.2-6.4,0.5
		c4,5.9,6.6,13,6.6,20.7c0,20.5-16.9,37.2-37.4,37.2c-14.5,0-27.1-8.4-33.2-20.6c-1.5,1.8-2.9,3.7-4.2,5.8
		c7.6,12.7,21.5,21.3,37.4,21.3C63.5,65.6,82.7,46.1,82.7,22.1z"/>
	<linearGradient id="XMLID_54_" gradientUnits="userSpaceOnUse" x1="3.2105" y1="42.0099" x2="3.9596" y2="42.0099">
		<stop  offset="0" style="stop-color:#A6CE39"/>
		<stop  offset="1" style="stop-color:#FFFFFF;stop-opacity:0"/>
	</linearGradient>
	<path id="XMLID_245_" class="st4" d="M3.2,42.6c0.2-0.4,0.5-0.7,0.7-1.1C3.7,41.8,3.5,42.2,3.2,42.6z"/>
	<linearGradient id="XMLID_55_" gradientUnits="userSpaceOnUse" x1="2.3632" y1="43.4454" x2="2.9041" y2="43.4454">
		<stop  offset="0" style="stop-color:#A6CE39"/>
		<stop  offset="1" style="stop-color:#FFFFFF;stop-opacity:0"/>
	</linearGradient>
	<path id="XMLID_244_" class="st5" d="M2.4,43.9c0.2-0.3,0.4-0.6,0.5-0.9C2.7,43.3,2.5,43.6,2.4,43.9z"/>
	<linearGradient id="XMLID_56_" gradientUnits="userSpaceOnUse" x1="2.0673" y1="44.5871" x2="2.3626" y2="44.5871">
		<stop  offset="0" style="stop-color:#A6CE39"/>
		<stop  offset="1" style="stop-color:#FFFFFF;stop-opacity:0"/>
	</linearGradient>
	<path id="XMLID_243_" class="st6" d="M2.1,44.4C2.1,44.4,2.1,44.4,2.1,44.4c0.1,0.2,0.2,0.3,0.3,0.5C2.3,44.7,2.2,44.5,2.1,44.4z"
		/>
	<linearGradient id="XMLID_57_" gradientUnits="userSpaceOnUse" x1="3.9608" y1="47.3157" x2="4.0737" y2="47.3157">
		<stop  offset="0" style="stop-color:#A6CE39"/>
		<stop  offset="1" style="stop-color:#FFFFFF;stop-opacity:0"/>
	</linearGradient>
	<path id="XMLID_242_" class="st7" d="M4,47.2c0,0.1,0.1,0.1,0.1,0.2C4,47.3,4,47.3,4,47.2z"/>
	<linearGradient id="XMLID_58_" gradientUnits="userSpaceOnUse" x1="2.9046" y1="45.916" x2="3.2098" y2="45.916">
		<stop  offset="0" style="stop-color:#A6CE39"/>
		<stop  offset="1" style="stop-color:#FFFFFF;stop-opacity:0"/>
	</linearGradient>
	<path id="XMLID_241_" class="st8" d="M2.9,45.7C3,45.8,3.1,46,3.2,46.1C3.1,46,3,45.8,2.9,45.7z"/>
	<linearGradient id="XMLID_59_" gradientUnits="userSpaceOnUse" x1="56.7334" y1="87.8809" x2="56.7334" y2="0.8195">
		<stop  offset="0" style="stop-color:#00AAE7"/>
		<stop  offset="1" style="stop-color:#F26924"/>
	</linearGradient>
	<path id="XMLID_240_" class="st9" d="M76.6,81.5c-20.5,0-37.1-16.6-37.1-37.1c0-20.5,16.6-37.1,37.1-37.1c1.3,0,2.6,0.1,3.9,0.2
		c-0.8-2.3-1.8-4.5-3-6.6c-0.3,0-0.6,0-0.9,0C52.5,0.8,33,20.3,33,44.4c0,24,19.5,43.5,43.5,43.5c0.3,0,0.6,0,0.9,0
		c1.2-2.1,2.2-4.3,3-6.6C79.2,81.4,77.9,81.5,76.6,81.5z"/>
	<linearGradient id="XMLID_60_" gradientUnits="userSpaceOnUse" x1="94.6997" y1="57.9479" x2="37.5086" y2="24.9286">
		<stop  offset="0" style="stop-color:#00ABE7"/>
		<stop  offset="1" style="stop-color:#FFFFFF;stop-opacity:0"/>
	</linearGradient>
	<path id="XMLID_232_" class="st10" d="M76.6,81.5c-20.5,0-37.1-16.6-37.1-37.1c0-20.5,16.6-37.1,37.1-37.1c1.3,0,2.6,0.1,3.9,0.2
		c-0.8-2.3-1.8-4.5-3-6.6c-0.3,0-0.6,0-0.9,0C52.5,0.8,33,20.3,33,44.4c0,24,19.5,43.5,43.5,43.5c0.3,0,0.6,0,0.9,0
		c1.2-2.1,2.2-4.3,3-6.6C79.2,81.4,77.9,81.5,76.6,81.5z"/>
	<linearGradient id="XMLID_61_" gradientUnits="userSpaceOnUse" x1="54.6082" y1="86.1293" x2="62.1865" y2="-0.4919">
		<stop  offset="0" style="stop-color:#FFFFFF;stop-opacity:0"/>
		<stop  offset="1" style="stop-color:#F26924"/>
	</linearGradient>
	<path id="XMLID_146_" class="st11" d="M76.6,81.5c-20.5,0-37.1-16.6-37.1-37.1c0-20.5,16.6-37.1,37.1-37.1c1.3,0,2.6,0.1,3.9,0.2
		c-0.8-2.3-1.8-4.5-3-6.6c-0.3,0-0.6,0-0.9,0C52.5,0.8,33,20.3,33,44.4c0,24,19.5,43.5,43.5,43.5c0.3,0,0.6,0,0.9,0
		c1.2-2.1,2.2-4.3,3-6.6C79.2,81.4,77.9,81.5,76.6,81.5z"/>
	<linearGradient id="XMLID_62_" gradientUnits="userSpaceOnUse" x1="7.0612" y1="49.5104" x2="68.5246" y2="27.1396">
		<stop  offset="0" style="stop-color:#B7D433"/>
		<stop  offset="1" style="stop-color:#00B3EA"/>
	</linearGradient>
	<path id="XMLID_145_" class="st12" d="M6.2,38.6c1,2,2.2,4,3.6,5.8c6.8-9,17.5-14.8,29.6-14.8c12.1,0,22.9,5.8,29.6,14.8
		c1.4-1.8,2.6-3.8,3.6-5.8c-8-9.4-19.9-15.5-33.2-15.5c-14.6,0-27.5,7.2-35.4,18.2C4.8,40.4,5.5,39.4,6.2,38.6z"/>
</g>
</svg>
